<?xml version="1.0" encoding="UTF-8" standalone="no"?>
<svg width="100px" height="100px" viewBox="0 0 100 100" version="1.1" xmlns="http://www.w3.org/2000/svg" xmlns:xlink="http://www.w3.org/1999/xlink" xmlns:sketch="http://www.bohemiancoding.com/sketch/ns">
    <!-- Generator: Sketch 3.3.3 (12081) - http://www.bohemiancoding.com/sketch -->
    <title>Logo Semi Black</title>
    <desc>Created with Sketch.</desc>
    <defs></defs>
    <g id="Page-1" stroke="none" stroke-width="1" fill="none" fill-rule="evenodd" sketch:type="MSPage">
        <path d="M49.5,2 C23.267,2 2,23.267 2,49.5 C2,75.733 23.267,97 49.5,97 C75.734,97 97,75.735 97,49.5 C97,23.267 75.734,2 49.5,2 L49.5,2 Z" id="Logo-FIlled-Black" stroke="#000000" stroke-width="3" sketch:type="MSShapeGroup"></path>
        <path d="M58.079,72.495 L49.5000009,57.6379999 L54.1999997,49.4999994 L72.173,80.633 L26.828,80.633 L44.802,49.5 L49.5,41.362 L58.077,26.505 L40.923,26.505 L49.5000009,41.3620008 L44.8020009,49.4999994 L26.828,18.367 L72.173,18.367 L54.2,49.5 L49.5,57.638 L40.922,72.495 L58.079,72.495 Z" id="Path-Copy" stroke="#FFFFFF" stroke-width="2" fill="#000000" sketch:type="MSShapeGroup"></path>
    </g>
</svg>