<?xml version="1.0" encoding="UTF-8" standalone="no"?>
<svg width="97px" height="97px" viewBox="0 0 97 97" version="1.1" xmlns="http://www.w3.org/2000/svg" xmlns:xlink="http://www.w3.org/1999/xlink" xmlns:sketch="http://www.bohemiancoding.com/sketch/ns">
    <!-- Generator: Sketch 3.3.3 (12081) - http://www.bohemiancoding.com/sketch -->
    <title>Logo Semi Black</title>
    <desc>Created with Sketch.</desc>
    <defs></defs>
    <g id="Page-1" stroke="none" stroke-width="1" fill="none" fill-rule="evenodd" sketch:type="MSPage">
        <path d="M48.5,1 C22.267,1 1,22.267 1,48.5 C1,74.733 22.267,96 48.5,96 C74.734,96 96,74.735 96,48.5 C96,22.267 74.734,1 48.5,1 L48.5,1 Z" id="Logo-FIlled-Black" stroke="#FFFFFF" stroke-width="3" sketch:type="MSShapeGroup"></path>
        <path d="M57.079,71.495 L48.5000009,56.6379999 L53.1999997,48.4999994 L71.173,79.633 L25.828,79.633 L43.802,48.5 L48.5,40.362 L57.077,25.505 L39.923,25.505 L48.5000009,40.3620008 L43.8020009,48.4999994 L25.828,17.367 L71.173,17.367 L53.2,48.5 L48.5,56.638 L39.922,71.495 L57.079,71.495 Z" id="Path-Copy" stroke="#000000" stroke-width="2" fill="#FFFFFF" sketch:type="MSShapeGroup"></path>
    </g>
</svg>