<?xml version="1.0" encoding="UTF-8" standalone="no"?>
<svg width="512px" height="341px" viewBox="0 0 512 341" version="1.1" xmlns="http://www.w3.org/2000/svg" xmlns:xlink="http://www.w3.org/1999/xlink" xmlns:sketch="http://www.bohemiancoding.com/sketch/ns">
    <!-- Generator: Sketch 3.3.3 (12081) - http://www.bohemiancoding.com/sketch -->
    <title>mail-extract</title>
    <desc>Created with Sketch.</desc>
    <defs>
        <rect id="path-1" x="0" y="0" width="512" height="341"></rect>
        <path id="path-2" d="M0.157457165,6.72888462 L0.157457165,74.7214846 L146,74.7214846 L146,0.225230769 L70.6475685,45.5792538 L0.157457165,0.374769231 L0.157457165,6.72888462 L0.157457165,6.72888462 Z"></path>
        <path id="path-4" d="M0.00126333333,40.3500356 L19.9861968,51.80552 L19.9861968,37.1527289 L113.440901,37.1527289 L113.440901,51.80552 L137.153374,39.4983911 L66.2771583,0 L0.00126333333,40.3500356 L0.00126333333,40.3500356 Z"></path>
        <path id="path-6" d="M0.664828966,0.378933333 L0.664828966,6.80365 L33.6767655,6.80365 L33.6767655,0.378933333 L0.664828966,0.378933333 L0.664828966,0.378933333 Z"></path>
        <path id="path-8" d="M0.347222069,0.42945 L0.347222069,6.85708333 L33.3620897,6.85708333 L33.3620897,0.42945 L0.347222069,0.42945 L0.347222069,0.42945 Z"></path>
        <path id="path-10" d="M0.157457165,6.72888462 L0.157457165,74.7214846 L146,74.7214846 L146,0.225230769 L70.6475685,45.5792538 L0.157457165,0.374769231 L0.157457165,6.72888462 L0.157457165,6.72888462 Z"></path>
        <path id="path-12" d="M0.00126333333,40.3500356 L19.9861968,51.80552 L19.9861968,37.1527289 L113.440901,37.1527289 L113.440901,51.80552 L137.153374,39.4983911 L66.2771583,0 L0.00126333333,40.3500356 L0.00126333333,40.3500356 Z"></path>
        <path id="path-14" d="M0.664828966,0.378933333 L0.664828966,6.80365 L33.6767655,6.80365 L33.6767655,0.378933333 L0.664828966,0.378933333 L0.664828966,0.378933333 Z"></path>
        <path id="path-16" d="M0.347222069,0.42945 L0.347222069,6.85708333 L33.3620897,6.85708333 L33.3620897,0.42945 L0.347222069,0.42945 L0.347222069,0.42945 Z"></path>
    </defs>
    <g id="Page-1" stroke="none" stroke-width="1" fill="none" fill-rule="evenodd" sketch:type="MSPage">
        <g id="mail-extract" sketch:type="MSArtboardGroup">
            <g id="Background">
                <use fill="#E6F3F0" fill-rule="evenodd" sketch:type="MSShapeGroup" xlink:href="#path-1"></use>
                <use fill="none" xlink:href="#path-1"></use>
            </g>
            <g id="Imported-Layers" sketch:type="MSLayerGroup" transform="translate(140.000000, 55.000000)">
                <path d="M116,232 C180.065037,232 232,180.065037 232,116 C232,51.9349632 180.065037,0 116,0 C51.9349632,0 0,51.9349632 0,116 C0,180.065037 51.9349632,232 116,232 L116,232 Z" id="Stroke-1" stroke="#000000" stroke-width="2" sketch:type="MSShapeGroup"></path>
                <g id="Group-5" transform="translate(44.000000, 101.000000)">
                    <mask id="mask-3" sketch:name="Clip 4" fill="white">
                        <use xlink:href="#path-2"></use>
                    </mask>
                    <g id="Clip-4"></g>
                    <path d="M-11.417346,-11.3132308 L157.574803,-11.3132308 L157.574803,86.2599462 L-11.417346,86.2599462 L-11.417346,-11.3132308 Z" id="Fill-3" fill="#010101" sketch:type="MSShapeGroup" mask="url(#mask-3)"></path>
                </g>
                <g id="Group-8" transform="translate(49.000000, 56.000000)">
                    <mask id="mask-5" sketch:name="Clip 7" fill="white">
                        <use xlink:href="#path-4"></use>
                    </mask>
                    <g id="Clip-7"></g>
                    <path d="M-11.58207,-11.5555556 L148.736707,-11.5555556 L148.736707,63.3610756 L-11.58207,63.3610756 L-11.58207,-11.5555556 Z" id="Fill-6" fill="#010101" sketch:type="MSShapeGroup" mask="url(#mask-5)"></path>
                </g>
                <g id="Group-11" transform="translate(98.000000, 101.000000)">
                    <mask id="mask-7" sketch:name="Clip 10" fill="white">
                        <use xlink:href="#path-6"></use>
                    </mask>
                    <g id="Clip-10"></g>
                    <path d="M-11.059309,-11.2877333 L45.4009034,-11.2877333 L45.4009034,18.4703167 L-11.059309,18.4703167 L-11.059309,-11.2877333 Z" id="Fill-9" fill="#010101" sketch:type="MSShapeGroup" mask="url(#mask-7)"></path>
                </g>
                <g id="Group-14" transform="translate(99.000000, 115.000000)">
                    <mask id="mask-9" sketch:name="Clip 13" fill="white">
                        <use xlink:href="#path-8"></use>
                    </mask>
                    <g id="Clip-13"></g>
                    <path d="M-11.3769159,-11.2372167 L45.0862276,-11.2372167 L45.0862276,18.52375 L-11.3769159,18.52375 L-11.3769159,-11.2372167 Z" id="Fill-12" fill="#010101" sketch:type="MSShapeGroup" mask="url(#mask-9)"></path>
                </g>
            </g>
            <g id="Imported-Layers-Copy" sketch:type="MSLayerGroup" transform="translate(140.000000, 55.000000)">
                <path d="M116,232 C180.065037,232 232,180.065037 232,116 C232,51.9349632 180.065037,0 116,0 C51.9349632,0 0,51.9349632 0,116 C0,180.065037 51.9349632,232 116,232 L116,232 Z" id="Stroke-1" stroke="#000000" stroke-width="2" sketch:type="MSShapeGroup"></path>
                <g id="Group-5" transform="translate(44.000000, 101.000000)">
                    <mask id="mask-11" sketch:name="Clip 4" fill="white">
                        <use xlink:href="#path-10"></use>
                    </mask>
                    <g id="Clip-4"></g>
                    <path d="M-11.417346,-11.3132308 L157.574803,-11.3132308 L157.574803,86.2599462 L-11.417346,86.2599462 L-11.417346,-11.3132308 Z" id="Fill-3" fill="#010101" sketch:type="MSShapeGroup" mask="url(#mask-11)"></path>
                </g>
                <g id="Group-8" transform="translate(49.000000, 56.000000)">
                    <mask id="mask-13" sketch:name="Clip 7" fill="white">
                        <use xlink:href="#path-12"></use>
                    </mask>
                    <g id="Clip-7"></g>
                    <path d="M-11.58207,-11.5555556 L148.736707,-11.5555556 L148.736707,63.3610756 L-11.58207,63.3610756 L-11.58207,-11.5555556 Z" id="Fill-6" fill="#010101" sketch:type="MSShapeGroup" mask="url(#mask-13)"></path>
                </g>
                <g id="Group-11" transform="translate(98.000000, 101.000000)">
                    <mask id="mask-15" sketch:name="Clip 10" fill="white">
                        <use xlink:href="#path-14"></use>
                    </mask>
                    <g id="Clip-10"></g>
                    <path d="M-11.059309,-11.2877333 L45.4009034,-11.2877333 L45.4009034,18.4703167 L-11.059309,18.4703167 L-11.059309,-11.2877333 Z" id="Fill-9" fill="#010101" sketch:type="MSShapeGroup" mask="url(#mask-15)"></path>
                </g>
                <g id="Group-14" transform="translate(99.000000, 115.000000)">
                    <mask id="mask-17" sketch:name="Clip 13" fill="white">
                        <use xlink:href="#path-16"></use>
                    </mask>
                    <g id="Clip-13"></g>
                    <path d="M-11.3769159,-11.2372167 L45.0862276,-11.2372167 L45.0862276,18.52375 L-11.3769159,18.52375 L-11.3769159,-11.2372167 Z" id="Fill-12" fill="#010101" sketch:type="MSShapeGroup" mask="url(#mask-17)"></path>
                </g>
            </g>
        </g>
    </g>
</svg>